<svg width="140" height="140" viewBox="0 0 140 140" fill="none" xmlns="http://www.w3.org/2000/svg">
<g id="basil:adobe-photoshop-outline">
<path id="Vector" fill-rule="evenodd" clip-rule="evenodd" d="M53.0542 90.4166H45.2258V47.7457C48.0492 47.2324 51.9633 46.8474 57.2892 46.8474C63.0642 46.8474 67.2992 48.0666 70.0642 50.3766C72.6308 52.4941 74.2933 55.8949 74.2933 59.9374C74.2933 64.0441 73.01 67.4449 70.5717 69.7549C67.4275 72.8991 62.4867 74.3749 56.9042 74.3749C55.4283 74.3749 54.0808 74.3107 53.0542 74.1182V90.4166ZM57.61 52.8791C55.4283 52.8791 53.8883 53.0716 53.06 53.2641V67.8941C54.0167 68.1507 55.3 68.2149 56.91 68.2149C62.8075 68.2149 66.4008 65.3274 66.4008 60.2582C66.4008 55.4457 63.0642 52.8791 57.61 52.8791Z" fill="#333333"/>
<path id="Vector_2" d="M84.3791 91.1225C80.5874 91.1225 77.1924 90.16 74.8824 88.8767L76.4224 83.1658C78.2191 84.2567 81.6141 85.4117 84.4433 85.4117C87.9083 85.4117 89.4483 84 89.4483 81.9467C89.4483 79.8292 88.165 78.7383 84.3149 77.3908C78.2191 75.2733 75.6524 71.9367 75.7166 68.2792C75.7166 62.7608 80.2666 58.4617 87.5233 58.4617C90.9883 58.4617 93.9983 59.36 95.8008 60.3225L94.2608 65.905C92.2399 64.7695 89.9692 64.1522 87.6516 64.1083C84.8283 64.1083 83.2883 65.4558 83.2883 67.3808C83.2883 69.37 84.7641 70.3325 88.7424 71.7442C94.3891 73.7975 97.0199 76.685 97.0841 81.305C97.0841 86.9517 92.6508 91.1225 84.3791 91.1225Z" fill="#333333"/>
<path id="Vector_3" fill-rule="evenodd" clip-rule="evenodd" d="M100.672 16.5259C80.2864 14.2661 59.7137 14.2661 39.3284 16.5259C27.5917 17.8384 18.1125 27.0843 16.7359 38.8793C14.3174 59.556 14.3174 80.4442 16.7359 101.121C18.1125 112.916 27.5859 122.162 39.3284 123.474C59.7138 125.732 80.2862 125.732 100.672 123.474C112.408 122.162 121.888 112.916 123.264 101.121C125.683 80.4442 125.683 59.556 123.264 38.8793C121.888 27.0843 112.414 17.8384 100.672 16.5259ZM40.2967 25.2176C60.0385 23.0294 79.9616 23.0294 99.7034 25.2176C107.462 26.0926 113.674 32.2118 114.578 39.9001C116.917 59.8986 116.917 80.1016 114.578 100.1C114.111 103.863 112.388 107.358 109.689 110.021C106.99 112.684 103.472 114.36 99.7034 114.777C79.9616 116.965 60.0385 116.965 40.2967 114.777C36.528 114.36 33.01 112.684 30.3109 110.021C27.6119 107.358 25.8894 103.863 25.4217 100.1C23.0828 80.1016 23.0828 59.8986 25.4217 39.9001C25.8894 36.1374 27.6119 32.6422 30.3109 29.9791C33.01 27.316 36.528 25.6347 40.2967 25.2176Z" fill="#333333"/>
</g>
</svg>
