<svg width="140" height="140" viewBox="0 0 140 140" fill="none" xmlns="http://www.w3.org/2000/svg">
<g id="ph:file-js">
<path id="Vector" d="M116.845 45.0297L86.2203 14.4047C85.8137 13.9985 85.3311 13.6765 84.8 13.4569C84.2689 13.2373 83.6997 13.1245 83.125 13.125H30.625C28.3044 13.125 26.0788 14.0469 24.4378 15.6878C22.7969 17.3288 21.875 19.5544 21.875 21.875V61.25C21.875 62.4103 22.3359 63.5231 23.1564 64.3436C23.9769 65.1641 25.0897 65.625 26.25 65.625C27.4103 65.625 28.5231 65.1641 29.3436 64.3436C30.1641 63.5231 30.625 62.4103 30.625 61.25V21.875H78.75V48.125C78.75 49.2853 79.2109 50.3981 80.0314 51.2186C80.8519 52.0391 81.9647 52.5 83.125 52.5H109.375V118.125H96.25C95.0897 118.125 93.9769 118.586 93.1564 119.406C92.3359 120.227 91.875 121.34 91.875 122.5C91.875 123.66 92.3359 124.773 93.1564 125.594C93.9769 126.414 95.0897 126.875 96.25 126.875H109.375C111.696 126.875 113.921 125.953 115.562 124.312C117.203 122.671 118.125 120.446 118.125 118.125V48.125C118.125 47.5503 118.013 46.9811 117.793 46.45C117.574 45.9189 117.251 45.4363 116.845 45.0297ZM87.5 28.0602L103.19 43.75H87.5V28.0602ZM80.8336 107.357C80.6631 109.03 80.1239 110.645 79.255 112.085C78.386 113.525 77.2087 114.755 75.8078 115.686C72.9695 117.578 69.4531 118.125 66.243 118.125C63.4391 118.109 60.6484 117.742 57.9359 117.031C56.8184 116.719 55.8708 115.975 55.3016 114.964C54.7324 113.953 54.5882 112.757 54.9008 111.639C55.2133 110.522 55.957 109.574 56.9683 109.005C57.9795 108.436 59.1754 108.291 60.293 108.604C62.6883 109.26 68.4961 110.08 70.9844 108.407C71.4656 108.084 71.9852 107.576 72.1547 106.258C72.3406 104.798 71.7664 104.016 65.1656 102.107C60.0523 100.63 51.4938 98.1531 52.5875 89.4688C52.7581 87.8284 53.2874 86.2457 54.138 84.8328C54.9886 83.4199 56.1396 82.2114 57.5094 81.293C63.9844 76.918 74.3039 79.4828 75.4633 79.7836C76.5859 80.0788 77.5453 80.8078 78.1304 81.8103C78.7155 82.8128 78.8784 84.0067 78.5832 85.1293C78.2881 86.2519 77.559 87.2113 76.5565 87.7964C75.554 88.3815 74.3601 88.5444 73.2375 88.2492C70.782 87.6094 64.9086 86.8492 62.393 88.5555C62.0632 88.7779 61.7917 89.0764 61.6014 89.4256C61.4111 89.7749 61.3074 90.1648 61.2992 90.5625C61.2336 91.0547 61.2227 91.1586 61.9062 91.6016C63.1695 92.4164 65.4336 93.0672 67.6211 93.7016C73.0023 95.2492 82.0586 97.8906 80.8336 107.357ZM43.75 83.125V103.906C43.75 107.677 42.252 111.294 39.5854 113.96C36.9189 116.627 33.3023 118.125 29.5312 118.125C25.7602 118.125 22.1436 116.627 19.4771 113.96C16.8105 111.294 15.3125 107.677 15.3125 103.906C15.3125 102.746 15.7734 101.633 16.5939 100.813C17.4144 99.9922 18.5272 99.5312 19.6875 99.5312C20.8478 99.5312 21.9606 99.9922 22.7811 100.813C23.6016 101.633 24.0625 102.746 24.0625 103.906C24.0625 105.357 24.6387 106.748 25.6643 107.773C26.6898 108.799 28.0808 109.375 29.5312 109.375C30.9817 109.375 32.3727 108.799 33.3982 107.773C34.4238 106.748 35 105.357 35 103.906V83.125C35 81.9647 35.4609 80.8519 36.2814 80.0314C37.1019 79.2109 38.2147 78.75 39.375 78.75C40.5353 78.75 41.6481 79.2109 42.4686 80.0314C43.2891 80.8519 43.75 81.9647 43.75 83.125Z" fill="#333333"/>
</g>
</svg>
