<svg width="140" height="140" viewBox="0 0 140 140" fill="none" xmlns="http://www.w3.org/2000/svg">
<g id="basil:adobe-illustrator-outline">
<path id="Vector" d="M92.9367 59.1674V90.4166H84.98V59.1674H92.9367ZM84.5367 50.4408C84.5367 48.0024 86.3275 46.1416 88.9584 46.1416C91.6592 46.1416 93.3217 48.0024 93.3917 50.4408C93.3917 52.8149 91.6533 54.6758 88.9 54.6758C86.2692 54.6758 84.5367 52.8149 84.5367 50.4408Z" fill="#333333"/>
<path id="Vector_2" fill-rule="evenodd" clip-rule="evenodd" d="M73.6983 90.4168L69.7841 78.161H56.0525L52.3308 90.4168H44.1816L58.0416 47.1685H68.1158L82.1683 90.4168H73.6983ZM60.6725 61.5418L57.3358 72.1935H68.4366L65.0358 61.5418C64.3591 59.4126 63.77 57.0735 63.2275 54.9326C63.1041 54.4404 62.9796 53.9485 62.8541 53.4568H62.7258C62.5041 54.3143 62.2883 55.2301 62.0608 56.1693C61.6291 57.9776 61.18 59.856 60.6725 61.5418Z" fill="#333333"/>
<path id="Vector_3" fill-rule="evenodd" clip-rule="evenodd" d="M100.672 16.5259C80.2863 14.2661 59.7136 14.2661 39.3283 16.5259C27.5916 17.8384 18.1125 27.0843 16.7358 38.8793C14.3172 59.556 14.3172 80.4442 16.7358 101.121C18.1125 112.916 27.5858 122.162 39.3283 123.474C59.7138 125.732 80.2862 125.732 100.672 123.474C112.408 122.162 121.887 112.916 123.264 101.121C125.682 80.4442 125.682 59.556 123.264 38.8793C121.887 27.0843 112.414 17.8384 100.672 16.5259ZM40.2966 25.2176C60.0384 23.0294 79.9615 23.0294 99.7033 25.2176C107.462 26.0926 113.674 32.2118 114.578 39.9001C116.917 59.8986 116.917 80.1016 114.578 100.1C114.111 103.863 112.388 107.358 109.689 110.021C106.99 112.684 103.472 114.36 99.7033 114.777C79.9615 116.965 60.0384 116.965 40.2966 114.777C36.5279 114.36 33.0099 112.684 30.3109 110.021C27.6118 107.358 25.8893 103.863 25.4216 100.1C23.0827 80.1016 23.0827 59.8986 25.4216 39.9001C25.8893 36.1374 27.6118 32.6422 30.3109 29.9791C33.0099 27.316 36.5279 25.6347 40.2966 25.2176Z" fill="#333333"/>
</g>
</svg>
