<svg width="140" height="140" viewBox="0 0 140 140" fill="none" xmlns="http://www.w3.org/2000/svg">
<g id="ph:file-html">
<path id="Vector" d="M70 83.125C70 84.2853 69.5391 85.3981 68.7186 86.2186C67.8981 87.0391 66.7853 87.5 65.625 87.5H61.25V113.75C61.25 114.91 60.7891 116.023 59.9686 116.844C59.1481 117.664 58.0353 118.125 56.875 118.125C55.7147 118.125 54.6019 117.664 53.7814 116.844C52.9609 116.023 52.5 114.91 52.5 113.75V87.5H48.125C46.9647 87.5 45.8519 87.0391 45.0314 86.2186C44.2109 85.3981 43.75 84.2853 43.75 83.125C43.75 81.9647 44.2109 80.8519 45.0314 80.0314C45.8519 79.2109 46.9647 78.75 48.125 78.75H65.625C66.7853 78.75 67.8981 79.2109 68.7186 80.0314C69.5391 80.8519 70 81.9647 70 83.125ZM35 78.75C33.8397 78.75 32.7269 79.2109 31.9064 80.0314C31.0859 80.8519 30.625 81.9647 30.625 83.125V94.0625H21.875V83.125C21.875 81.9647 21.4141 80.8519 20.5936 80.0314C19.7731 79.2109 18.6603 78.75 17.5 78.75C16.3397 78.75 15.2269 79.2109 14.4064 80.0314C13.5859 80.8519 13.125 81.9647 13.125 83.125V113.75C13.125 114.91 13.5859 116.023 14.4064 116.844C15.2269 117.664 16.3397 118.125 17.5 118.125C18.6603 118.125 19.7731 117.664 20.5936 116.844C21.4141 116.023 21.875 114.91 21.875 113.75V102.812H30.625V113.75C30.625 114.91 31.0859 116.023 31.9064 116.844C32.7269 117.664 33.8397 118.125 35 118.125C36.1603 118.125 37.2731 117.664 38.0936 116.844C38.9141 116.023 39.375 114.91 39.375 113.75V83.125C39.375 81.9647 38.9141 80.8519 38.0936 80.0314C37.2731 79.2109 36.1603 78.75 35 78.75ZM131.25 109.375H124.688V83.125C124.688 81.9647 124.227 80.8519 123.406 80.0314C122.586 79.2109 121.473 78.75 120.312 78.75C119.152 78.75 118.039 79.2109 117.219 80.0314C116.398 80.8519 115.938 81.9647 115.938 83.125V113.75C115.938 114.91 116.398 116.023 117.219 116.844C118.039 117.664 119.152 118.125 120.312 118.125H131.25C132.41 118.125 133.523 117.664 134.344 116.844C135.164 116.023 135.625 114.91 135.625 113.75C135.625 112.59 135.164 111.477 134.344 110.656C133.523 109.836 132.41 109.375 131.25 109.375ZM106.17 78.9086C105.248 78.6524 104.267 78.7057 103.378 79.0603C102.489 79.4149 101.741 80.0513 101.248 80.8719L91.875 96.4961L82.5016 80.8719C82.0092 80.0513 81.2614 79.4147 80.3726 79.0598C79.4839 78.7048 78.5033 78.6511 77.5811 78.9068C76.6589 79.1625 75.846 79.7135 75.2669 80.4754C74.6878 81.2373 74.3745 82.168 74.375 83.125V113.75C74.375 114.91 74.8359 116.023 75.6564 116.844C76.4769 117.664 77.5897 118.125 78.75 118.125C79.9103 118.125 81.0231 117.664 81.8436 116.844C82.6641 116.023 83.125 114.91 83.125 113.75V98.9188L88.1234 107.253C88.5121 107.901 89.062 108.437 89.7194 108.809C90.3769 109.182 91.1195 109.377 91.875 109.377C92.6305 109.377 93.3731 109.182 94.0306 108.809C94.688 108.437 95.2379 107.901 95.6266 107.253L100.625 98.9188V113.75C100.625 114.91 101.086 116.023 101.906 116.844C102.727 117.664 103.84 118.125 105 118.125C106.16 118.125 107.273 117.664 108.094 116.844C108.914 116.023 109.375 114.91 109.375 113.75V83.125C109.375 82.1685 109.062 81.2383 108.483 80.4768C107.904 79.7153 107.092 79.1645 106.17 78.9086ZM113.75 65.625C112.59 65.625 111.477 65.1641 110.656 64.3436C109.836 63.5231 109.375 62.4103 109.375 61.25V52.5H83.125C81.9647 52.5 80.8519 52.0391 80.0314 51.2186C79.2109 50.3981 78.75 49.2853 78.75 48.125V21.875H30.625V61.25C30.625 62.4103 30.1641 63.5231 29.3436 64.3436C28.5231 65.1641 27.4103 65.625 26.25 65.625C25.0897 65.625 23.9769 65.1641 23.1564 64.3436C22.3359 63.5231 21.875 62.4103 21.875 61.25V21.875C21.875 19.5544 22.7969 17.3288 24.4378 15.6878C26.0788 14.0469 28.3044 13.125 30.625 13.125H83.125C83.6997 13.1245 84.2689 13.2373 84.8 13.4569C85.3311 13.6765 85.8137 13.9985 86.2203 14.4047L116.845 45.0297C117.251 45.4363 117.574 45.9189 117.793 46.45C118.013 46.9811 118.125 47.5503 118.125 48.125V61.25C118.125 62.4103 117.664 63.5231 116.844 64.3436C116.023 65.1641 114.91 65.625 113.75 65.625ZM103.19 43.75L87.5 28.0602V43.75H103.19Z" fill="#333333"/>
</g>
</svg>
