<svg width="140" height="140" viewBox="0 0 140 140" fill="none" xmlns="http://www.w3.org/2000/svg">
<g id="charm:github">
<path id="Vector" d="M50.3125 124.688C50.3125 124.688 45.9375 107.188 54.6875 98.4375C54.6875 98.4375 37.1875 98.4375 24.0625 85.3125C10.9375 72.1875 15.3125 45.9375 24.0625 37.1875C19.6875 24.0625 28.4375 15.3125 28.4375 15.3125C28.4375 15.3125 41.5625 15.3125 50.3125 24.0625C59.0625 19.6875 80.9375 19.6875 89.6875 24.0625C98.4375 15.3125 111.563 15.3125 111.563 15.3125C111.563 15.3125 120.313 24.0625 115.938 37.1875C124.688 45.9375 129.063 72.1875 115.938 85.3125C102.813 98.4375 85.3125 98.4375 85.3125 98.4375C94.0625 107.188 89.6875 124.688 89.6875 124.688M45.9375 120.312C32.8125 124.688 19.6875 115.938 15.3125 111.562" stroke="#333333" stroke-width="10" stroke-linecap="round" stroke-linejoin="round"/>
</g>
</svg>
