<svg width="140" height="140" viewBox="0 0 140 140" fill="none" xmlns="http://www.w3.org/2000/svg">
<g id="ph:file-css">
<path id="Vector" d="M26.25 98.4375C26.25 104.453 30.1766 109.375 35 109.375C36.0557 109.351 37.0956 109.113 38.0564 108.675C39.0172 108.237 39.8789 107.608 40.5891 106.827C40.9807 106.39 41.4561 106.036 41.9871 105.787C42.5181 105.538 43.0938 105.398 43.6799 105.376C44.2661 105.353 44.8507 105.449 45.3991 105.657C45.9475 105.865 46.4484 106.182 46.8721 106.588C47.2957 106.993 47.6335 107.48 47.8653 108.019C48.097 108.558 48.2181 109.138 48.2212 109.724C48.2243 110.311 48.1094 110.892 47.8834 111.433C47.6574 111.975 47.3248 112.465 46.9055 112.875C45.3839 114.516 43.5429 115.828 41.4954 116.731C39.448 117.634 37.2376 118.108 35 118.125C25.3477 118.125 17.5 109.293 17.5 98.4375C17.5 87.582 25.3477 78.75 35 78.75C37.2376 78.7669 39.448 79.2414 41.4954 80.1443C43.5429 81.0471 45.3839 82.3593 46.9055 84C47.3248 84.4102 47.6574 84.9005 47.8834 85.4417C48.1094 85.983 48.2243 86.5642 48.2212 87.1508C48.2181 87.7374 48.097 88.3173 47.8653 88.8562C47.6335 89.395 47.2957 89.8818 46.8721 90.2875C46.4484 90.6932 45.9475 91.0095 45.3991 91.2177C44.8507 91.4259 44.2661 91.5217 43.6799 91.4994C43.0938 91.4771 42.5181 91.3372 41.9871 91.0879C41.4561 90.8386 40.9807 90.4851 40.5891 90.0484C39.8789 89.2669 39.0172 88.638 38.0564 88.1999C37.0956 87.7618 36.0557 87.5237 35 87.5C30.1766 87.5 26.25 92.4219 26.25 98.4375ZM69.7812 93.6852C67.5938 93.0508 65.3297 92.4 64.0664 91.5852C63.3773 91.1422 63.3937 91.0383 63.4539 90.5461C63.4621 90.1484 63.5657 89.7585 63.7561 89.4092C63.9464 89.06 64.2179 88.7615 64.5477 88.5391C67.0633 86.8328 72.9367 87.593 75.3922 88.2328C76.5148 88.528 77.7087 88.3651 78.7112 87.78C79.7137 87.1949 80.4427 86.2355 80.7379 85.1129C81.033 83.9903 80.8702 82.7964 80.2851 81.7939C79.7 80.7914 78.7406 80.0623 77.618 79.7672C76.4586 79.4664 66.1336 76.9125 59.6641 81.2766C58.294 82.1947 57.1428 83.4031 56.2922 84.8161C55.4416 86.229 54.9124 87.8119 54.7422 89.4523C53.6484 98.1367 62.2016 100.614 67.3203 102.091C73.9211 103.999 74.5008 104.781 74.3094 106.241C74.1398 107.559 73.6203 108.068 73.1391 108.391C70.6234 110.064 64.843 109.244 62.4477 108.588C61.3355 108.292 60.1519 108.447 59.1532 109.019C58.1544 109.59 57.421 110.532 57.1118 111.64C56.8025 112.749 56.9423 113.934 57.5009 114.94C58.0595 115.946 58.9919 116.691 60.0961 117.015C62.8066 117.725 65.5956 118.093 68.3977 118.109C71.5859 118.109 75.1242 117.562 77.9625 115.67C79.3634 114.739 80.5407 113.509 81.4096 112.069C82.2786 110.629 82.8178 109.014 82.9883 107.341C84.2188 97.8906 75.1844 95.2492 69.7812 93.6852ZM104.781 93.6852C102.594 93.0508 100.33 92.4 99.0664 91.5852C98.3828 91.1422 98.3938 91.0383 98.4539 90.5461C98.4621 90.1484 98.5658 89.7585 98.7561 89.4092C98.9464 89.06 99.2179 88.7615 99.5477 88.5391C102.063 86.8328 107.937 87.593 110.387 88.2328C111.509 88.528 112.703 88.3651 113.706 87.78C114.708 87.1949 115.437 86.2355 115.732 85.1129C116.028 83.9903 115.865 82.7964 115.28 81.7939C114.694 80.7914 113.735 80.0623 112.612 79.7672C111.459 79.4664 101.128 76.9125 94.6586 81.2766C93.2944 82.1984 92.1491 83.4083 91.3034 84.8209C90.4577 86.2335 89.9322 87.8145 89.7641 89.4523C88.6703 98.1367 97.2289 100.614 102.342 102.091C108.938 103.999 109.517 104.781 109.331 106.241C109.162 107.559 108.642 108.068 108.155 108.391C105.64 110.064 99.8648 109.244 97.4695 108.588C96.3498 108.276 95.1521 108.421 94.1398 108.993C93.1276 109.564 92.3837 110.514 92.0719 111.634C91.76 112.753 91.9058 113.951 92.477 114.963C93.0483 115.976 93.9983 116.719 95.118 117.031C97.8304 117.742 100.621 118.109 103.425 118.125C106.608 118.125 110.152 117.578 112.99 115.686C114.39 114.755 115.566 113.525 116.434 112.085C117.303 110.645 117.841 109.03 118.01 107.357C119.219 97.8906 110.184 95.2492 104.776 93.6852H104.781ZM21.875 61.25V21.875C21.875 19.5544 22.7969 17.3288 24.4378 15.6878C26.0788 14.0469 28.3044 13.125 30.625 13.125H83.125C83.6997 13.1245 84.2689 13.2373 84.8 13.4569C85.3311 13.6765 85.8137 13.9985 86.2203 14.4047L116.845 45.0297C117.251 45.4363 117.574 45.9189 117.793 46.45C118.013 46.9811 118.125 47.5503 118.125 48.125V61.25C118.125 62.4103 117.664 63.5231 116.844 64.3436C116.023 65.1641 114.91 65.625 113.75 65.625C112.59 65.625 111.477 65.1641 110.656 64.3436C109.836 63.5231 109.375 62.4103 109.375 61.25V52.5H83.125C81.9647 52.5 80.8519 52.0391 80.0314 51.2186C79.2109 50.3981 78.75 49.2853 78.75 48.125V21.875H30.625V61.25C30.625 62.4103 30.1641 63.5231 29.3436 64.3436C28.5231 65.1641 27.4103 65.625 26.25 65.625C25.0897 65.625 23.9769 65.1641 23.1564 64.3436C22.3359 63.5231 21.875 62.4103 21.875 61.25ZM87.5 43.75H103.184L87.5 28.0602V43.75Z" fill="#333333"/>
</g>
</svg>
