<svg width="140" height="140" viewBox="0 0 140 140" fill="none" xmlns="http://www.w3.org/2000/svg">
<g id="solar:figma-broken">
<path id="Vector" d="M70 50.5576H50.5575M70 50.5576V11.6667H50.5575C45.4002 11.6667 40.4542 13.7155 36.8075 17.3622C33.1608 21.0089 31.1121 25.9549 31.1121 31.1122C31.1121 36.2694 33.1608 41.2154 36.8075 44.8622C40.4542 48.5089 45.4002 50.5576 50.5575 50.5576M70 50.5576V89.4426H50.5575M70 50.5576H89.4425M50.5575 50.5576C45.401 50.5576 40.4557 52.606 36.8096 56.2522C33.1634 59.8983 31.115 64.8436 31.115 70.0001C31.115 75.1566 33.1634 80.1018 36.8096 83.748C40.4557 87.3942 45.401 89.4426 50.5575 89.4426M50.5575 89.4426C46.7124 89.4426 42.9536 90.5827 39.7564 92.7188C36.5592 94.8549 34.0672 97.8911 32.5955 101.443C31.1238 104.996 30.7384 108.905 31.4881 112.676C32.2379 116.447 34.089 119.912 36.8075 122.631C39.526 125.35 42.9898 127.202 46.7609 127.953C50.532 128.704 54.441 128.32 57.9938 126.849C61.5465 125.379 64.5834 122.888 66.7205 119.691C68.8576 116.494 69.9988 112.736 70 108.891M89.4425 50.5576C84.286 50.5576 79.3407 52.606 75.6946 56.2522C72.0484 59.8983 70 64.8436 70 70.0001C70 75.1566 72.0484 80.1018 75.6946 83.748C79.3407 87.3942 84.286 89.4426 89.4425 89.4426C94.5989 89.4426 99.5442 87.3942 103.19 83.748C106.837 80.1018 108.885 75.1566 108.885 70.0001C108.885 64.8436 106.837 59.8983 103.19 56.2522C99.5442 52.606 94.5989 50.5576 89.4425 50.5576ZM89.4425 50.5576C94.5997 50.5576 99.5457 48.5089 103.192 44.8622C106.839 41.2154 108.888 36.2694 108.888 31.1122C108.888 25.9549 106.839 21.0089 103.192 17.3622C99.5457 13.7155 94.5997 11.6667 89.4425 11.6667" stroke="#333333" stroke-width="10" stroke-linecap="round" stroke-linejoin="round"/>
</g>
</svg>
